#!OML:ASF Y:\EmotionMaleHayes\Project 1\Capture day 1\Session 1\Male1.ASF
:FULLY-SPECIFIED
:DEGREES
356
root 3.97093 16.7101 -2.61144 156.574 49.1879 133.764
lowerback 16.3802 -2.41777 -17.0634
upperback 4.82017 -5.33437 2.28221
thorax -1.96177 -2.62043 13.117
lowerneck -25.6921 -1.52887 -3.90582
upperneck 20.6139 1.58313 -7.25922
head 11.003 -0.46414 -1.74127
rclavicle 4.92986e-014 -9.54166e-014
rhumerus -46.0219 36.7848 -72.8054
rradius 91.0901
rwrist -9.16167
rhand -20.9953 -18.7223
rfingers 7.12502
rthumb 5.37885 -48.634
lclavicle 4.92986e-014 -9.54166e-014
lhumerus -3.91307 -22.6412 61.0795
lradius 43.6437
lwrist -31.8162
lhand -10.0284 -17.8356
lfingers 7.12502
lthumb 15.9563 11.5272
rfemur -46.3737 -6.15623 -17.281
rtibia 49.06
rfoot -196.034 -186.779
rtoes 2.04837
lfemur 18.9067 2.05087 -12.8248
ltibia 32.053
lfoot 1.09648 10.6903
ltoes -2.3668
357
root 4.42988 16.5399 -2.49687 157.238 46.7155 136.475
lowerback 17.6416 -2.30742 -18.1264
upperback 5.07673 -5.51685 1.86924
thorax -2.19518 -2.67047 13.3764
lowerneck -25.5411 -2.08854 -3.89414
upperneck 21.0321 0.724031 -6.88342
head 11.1039 -0.8154 -1.75484
rclavicle -1.11319e-014 -2.70347e-014
rhumerus -45.6458 34.7089 -72.4839
rradius 89.651
rwrist -7.49971
rhand -20.614 -18.9182
rfingers 7.12502
rthumb 5.74705 -48.8202
lclavicle -1.11319e-014 -2.70347e-014
lhumerus -6.54761 -20.476 63.7134
lradius 42.2612
lwrist -34.215
lhand -11.5011 -19.5352
lfingers 7.12502
lthumb 14.5378 9.93544
rfemur -43.7596 -5.72584 -15.8316
rtibia 52.7254
rfoot -199.505 -186.555
rtoes 4.05139
lfemur 19.2911 0.170838 -9.00882
ltibia 34.229
lfoot 1.52351 9.82381
ltoes -0.462017
358
root 4.84957 16.3555 -2.39828 157.989 44.462 138.751
lowerback 18.6233 -2.10204 -18.6007
upperback 5.15601 -5.48961 1.22928
thorax -2.64918 -2.57665 12.9878
lowerneck -25.0044 -2.71788 -3.63967
upperneck 21.1424 -0.345656 -6.63463
head 11.0153 -1.24161 -1.87462
rclavicle 4.29375e-014 -7.95139e-015
rhumerus -45.5079 32.2134 -72.3907
rradius 88.439
rwrist -6.16675
rhand -20.0804 -19.046
rfingers 7.12502
rthumb 6.26223 -48.9334
lclavicle 4.29375e-014 -7.95139e-015
lhumerus -8.8679 -18.9509 65.3834
lradius 41.0768
lwrist -34.8264
lhand -12.703 -21.4338
lfingers 7.12502
lthumb 13.3795 8.11655
rfemur -42.3321 -5.85856 -14.4445
rtibia 56.1923
rfoot -201.929 -186.778
rtoes 1.17619
lfemur 18.6238 -1.6688 -5.70476
ltibia 36.4912
lfoot 1.16602 9.23611
ltoes -1.44427
359
root 5.26525 16.168 -2.29729 158.674 42.1401 141.258
lowerback 20.0047 -1.91429 -18.5657
upperback 5.24575 -5.46969 0.480974
thorax -3.36851 -2.44504 12.2196
lowerneck -24.1009 -3.28453 -3.29192
upperneck 20.8777 -1.44742 -6.27144
head 10.7175 -1.65128 -1.95064
rclavicle 2.38542e-014 3.65764e-014
rhumerus -45.4778 29.7775 -72.5265
rradius 87.4398
rwrist -5.49155
rhand -20.3055 -18.9627
rfingers 7.12502
rthumb 6.04488 -48.8565
lclavicle 2.38542e-014 3.65764e-014
lhumerus -11.1512 -17.2303 66.3555
lradius 39.8754
lwrist -34.7605
lhand -13.5386 -23.4622
lfingers 7.12502
lthumb 12.574 6.13937
rfemur -40.6835 -6.37264 -12.5945
rtibia 59.21
rfoot -203.949 -187.171
rtoes 0.912209
lfemur 17.4003 -3.66902 -2.32769
ltibia 39.0756
lfoot 0.882206 8.11309
ltoes -4.11676
360
root 5.66555 15.9867 -2.20977 159.207 39.6802 143.746
lowerback 21.4199 -1.87846 -18.2757
upperback 5.56982 -5.53888 -0.223142
thorax -3.82219 -2.38673 11.3624
lowerneck -23.1973 -3.75786 -3.08679
upperneck 20.0275 -2.4246 -5.8083
head 10.2171 -2.00405 -1.92613
rclavicle -6.20208e-014 5.40694e-014
rhumerus -44.788 27.8259 -72.2809
rradius 86.4833
rwrist -5.60464
rhand -20.7954 -18.9235
rfingers 7.12502
rthumb 5.57185 -48.8302
lclavicle -6.20208e-014 5.40694e-014
lhumerus -13.2206 -14.6784 66.8526
lradius 38.7385
lwrist -34.202
lhand -14.7991 -25.3893
lfingers 7.12502
lthumb 11.3585 4.28305
rfemur -36.978 -7.28613 -10.712
rtibia 59.5318
rfoot -205.212 -187.785
rtoes 1.71009
lfemur 15.4387 -5.64115 0.833266
ltibia 42.1678
lfoot 0.602825 7.19738
ltoes -4.81078
361
root 6.04817 15.8404 -2.15992 162.489 38.7281 149.544
lowerback 21.6247 -2.28044 -14.4812
upperback 6.08301 -5.19658 -0.0683001
thorax -3.8824 -2.22951 9.33695
lowerneck -22.3551 -4.32653 -3.1632
upperneck 18.9175 -3.39288 -5.45333
head 9.65436 -2.39213 -1.88178
rclavicle 7.31528e-014 -7.95139e-015
rhumerus -43.6639 26.0707 -71.441
rradius 85.7011
rwrist -6.03296
rhand -20.8089 -19.1394
rfingers 7.12502
rthumb 5.55887 -49.0464
lclavicle 7.31528e-014 -7.95139e-015
lhumerus -15.0159 -11.9755 67.0667
lradius 37.7951
lwrist -32.9098
lhand -16.8213 -26.9755
lfingers 7.12502
lthumb 9.40777 2.79454
rfemur -34.126 -8.25736 -5.00146
rtibia 59.6556
rfoot -206.571 -188.926
rtoes 0.980238
lfemur 12.5765 -6.46645 7.62447
ltibia 45.2684
lfoot 0.271485 6.66391
ltoes -3.5226
362
root 6.42541 15.7077 -2.11492 166.74 37.9709 156.154
lowerback 21.5514 -2.7357 -9.18309
upperback 6.1227 -4.68636 0.105585
thorax -4.4696 -1.95332 6.43681
lowerneck -21.415 -5.0439 -3.31134
upperneck 18.445 -4.52464 -4.97252
head 9.31444 -2.85968 -1.81221
rclavicle 4.37326e-014 4.92986e-014
rhumerus -43.4954 24.1651 -70.9149
rradius 85.2832
rwrist -6.65821
rhand -21.1473 -19.3584
rfingers 7.12502
rthumb 5.23212 -49.2738
lclavicle 4.37326e-014 4.92986e-014
lhumerus -17.1454 -10.4476 66.7156
lradius 37.021
lwrist -30.8233
lhand -18.4603 -27.9727
lfingers 7.12502
lthumb 7.82603 1.86244
rfemur -32.4194 -9.2676 1.92242
rtibia 60.0744
rfoot -208.377 -189.847
rtoes 3.93671
lfemur 8.68972 -6.05285 15.6756
ltibia 48.5704
lfoot -0.191953 5.32487
ltoes -1.55579
363
root 6.81312 15.5983 -2.05669 170.362 36.8068 161.423
lowerback 20.7617 -2.91945 -5.22897
upperback 6.29696 -4.05054 0.242999
thorax -4.31199 -1.65926 4.15677
lowerneck -20.7569 -5.81085 -3.68029
upperneck 18.0548 -5.67186 -4.31428
head 9.07703 -3.34035 -1.65508
rclavicle -8.66701e-014 -2.38542e-014
rhumerus -42.808 22.519 -69.7809
rradius 85.0154
rwrist -7.44415
rhand -21.3041 -20.2373
rfingers 7.12502
rthumb 5.08076 -50.1564
lclavicle -8.66701e-014 -2.38542e-014
lhumerus -18.7279 -9.23174 66.0093
lradius 36.1992
lwrist -27.5753
lhand -20.4032 -28.9893
lfingers 7.12502
lthumb 5.95057 0.907121
rfemur -31.4131 -9.59509 7.9656
rtibia 60.665
rfoot -209.887 -191.846
rtoes 1.81859
lfemur 4.18019 -4.64158 22.555
ltibia 52.0243
lfoot -0.851166 4.04657
ltoes -0.521286
364
root 7.17432 15.5223 -1.98529 171.702 35.1167 162.323
lowerback 19.868 -2.55527 -4.97482
upperback 6.25307 -3.52798 -0.172132
thorax -4.00097 -1.41893 3.40751
lowerneck -20.1789 -6.57942 -4.25683
upperneck 17.7521 -6.67956 -3.90174
head 8.90007 -3.79877 -1.53297
rclavicle -1.03368e-014 -6.36111e-014
rhumerus -41.9321 21.2216 -67.9096
rradius 84.9619
rwrist -7.76058
rhand -22.6194 -19.8035
rfingers 7.12502
rthumb 3.81064 -49.7492
lclavicle -1.03368e-014 -6.36111e-014
lhumerus -20.3871 -8.12236 65.4373
lradius 35.7211
lwrist -23.0093
lhand -21.4457 -28.9021
lfingers 7.12502
lthumb 4.94403 1.02027
rfemur -31.5176 -9.85876 9.95818
rtibia 61.619
rfoot -211.64 -193.05
rtoes 5.60541
lfemur -0.976652 -2.75564 24.5235
ltibia 55.8681
lfoot -1.51825 4.2328
ltoes -0.0876103
365
root 7.53666 15.4743 -1.89615 172.065 33.3146 161.453
lowerback 19.4054 -2.01677 -6.57492
upperback 6.04319 -3.15364 -0.76806
thorax -3.94953 -1.2376 3.57739
lowerneck -19.8156 -7.19417 -4.57402
upperneck 17.7678 -7.40683 -4.00294
head 8.85035 -4.16587 -1.60213
rclavicle -8.26944e-014 7.31528e-014
rhumerus -41.029 20.3524 -65.806
rradius 84.9935
rwrist -7.6576
rhand -23.0648 -19.8366
rfingers 7.12502
rthumb 3.3805 -49.7896
lclavicle -8.26944e-014 7.31528e-014
lhumerus -22.4771 -6.92483 64.7252
lradius 35.6694
lwrist -18.0516
lhand -22.0909 -27.5687
lfingers 7.12502
lthumb 4.32104 2.36725
rfemur -31.8136 -9.90042 10.2759
rtibia 62.1364
rfoot -212.931 -194.036
rtoes 9.97445
lfemur -6.33375 -0.724519 24.0388
ltibia 59.8993
lfoot -2.44182 3.7403
ltoes 1.71094
366
root 7.90588 15.4765 -1.80262 171.993 31.9465 161.501
lowerback 20.2173 -1.39786 -7.43551
upperback 6.03284 -2.55015 -1.22967
thorax -4.41667 -0.896826 3.4664
lowerneck -19.6446 -7.83069 -4.93383
upperneck 18.0295 -8.16413 -3.9698
head 8.92831 -4.53875 -1.63914
rclavicle 1.27222e-014 7.95139e-014
rhumerus -40.1681 19.2828 -63.7356
rradius 84.9522
rwrist -7.12396
rhand -23.508 -19.5491
rfingers 7.12502
rthumb 2.95249 -49.5084
lclavicle 1.27222e-014 7.95139e-014
lhumerus -24.6309 -6.15768 63.7062
lradius 35.9433
lwrist -13.3669
lhand -23.016 -25.9512
lfingers 7.12502
lthumb 3.42761 4.00097
rfemur -30.6797 -9.42204 11.5166
rtibia 61.6825
rfoot -213.682 -195.012
rtoes 13.523
lfemur -10.5379 1.03446 23.7333
ltibia 63.4645
lfoot -3.03877 3.37952
ltoes -1.08127
367
root 8.26213 15.5024 -1.73446 171.61 30.8585 161.469
lowerback 21.1041 -0.707415 -8.07036
upperback 6.20323 -1.79169 -1.75096
thorax -4.75775 -0.473564 3.10577
lowerneck -19.4013 -8.56437 -5.73192
upperneck 18.19 -9.06061 -3.41756
head 9.01094 -4.95084 -1.45084
rclavicle 3.77691e-014 -7.95139e-016
rhumerus -39.1778 18.1384 -61.6032
rradius 84.7117
rwrist -6.22391
rhand -24.0406 -19.9582
rfingers 7.12502
rthumb 2.43813 -49.924
lclavicle 3.77691e-014 -7.95139e-016
lhumerus -26.6438 -5.42372 62.5119
lradius 36.4791
lwrist -9.00154
lhand -23.7627 -24.2061
lfingers 7.12502
lthumb 2.70658 5.75644
rfemur -29.1434 -9.35511 12.5898
rtibia 60.8932
rfoot -213.839 -196.145
rtoes 14.0283
lfemur -14.0515 2.70819 22.7515
ltibia 66.3989
lfoot -4.05896 2.36469
ltoes -6.78862
368
root 8.59735 15.5449 -1.69027 171.126 30.1336 161.486
lowerback 21.9226 -0.0881527 -8.48684
upperback 6.49831 -1.05611 -2.25023
thorax -4.92535 -0.063778 2.62638
lowerneck -19.1733 -9.07558 -5.99043
upperneck 18.0818 -9.7359 -3.25953
head 8.96069 -5.26598 -1.43804
rclavicle 4.81059e-014 -2.14687e-014
rhumerus -37.7272 17.7569 -59.429
rradius 84.1997
rwrist -5.68729
rhand -24.5008 -19.5751
rfingers 7.12502
rthumb 1.99365 -49.5455
lclavicle 4.81059e-014 -2.14687e-014
lhumerus -28.8924 -5.07188 61.3731
lradius 37.425
lwrist -5.32088
lhand -25.574 -19.7413
lfingers 7.12502
lthumb 0.957161 10.2363
rfemur -27.206 -9.29793 13.6509
rtibia 59.708
rfoot -213.868 -197.125
rtoes 13.5106
lfemur -16.9664 4.36085 21.3917
ltibia 68.8055
lfoot -4.38813 0.820818
ltoes -6.09602
369
root 8.92085 15.5971 -1.65336 171.316 29.8336 162.205
lowerback 22.3037 0.457384 -8.18546
upperback 6.76122 -0.246352 -2.57094
thorax -4.92063 0.358702 1.90185
lowerneck -19.1126 -9.55848 -6.30664
upperneck 18.0029 -10.347 -3.08222
head 8.95669 -5.55365 -1.4114
rclavicle 5.1684e-015 -2.78299e-014
rhumerus -35.8616 17.6893 -57.0917
rradius 83.3896
rwrist -5.77368
rhand -25.1253 -19.7896
rfingers 7.12502
rthumb 1.39055 -49.7648
lclavicle 5.1684e-015 -2.78299e-014
lhumerus -31.0227 -4.61685 60.0959
lradius 37.8984
lwrist -2.69434
lhand -27.8578 -16.5403
lfingers 7.12502
lthumb -1.24858 13.4358
rfemur -25.3216 -8.70015 15.5858
rtibia 58.0906
rfoot -214.414 -197.296
rtoes 17.6696
lfemur -19.9088 6.58189 20.4703
ltibia 71.0257
lfoot -5.19331 -0.199686
ltoes -9.71819
